Coordinates
version=1
nRows=11
nColumns=33
inDegrees=yes

Units are S.I. units (second, meters, Newtons, ...)
Angles are in degrees.

endheader
time	ground_thorax_rot_x	ground_thorax_rot_y	ground_thorax_rot_z	ground_thorax_tx	ground_thorax_ty	ground_thorax_tz	clav_prot_r	clav_elev_r	scapula_abduction_r	scapula_elevation_r	scapula_upward_rot_r	scapula_winging_r	shoulder_elv_r	plane_of_elev_r	axial_rot_r	elbow_flexion_r	pro_sup_r	wrist_flex_r	wrist_dev_r	clav_prot_l	clav_elev_l	scapula_abduction_l	scapula_elevation_l	scapula_upward_rot_l	scapula_winging_l	shoulder_elv_l	plane_of_elev_l	axial_rot_l	elbow_flexion_l	pro_sup_l	wrist_flex_l	wrist_dev_l	
4.7000	-32.742337	-26.083813	32.352635	-44.009367	818.927740	-46.724376	29.149303	-45.000000	39.395805	-45.000000	-45.000000	-1546.973602	-2083.484934	20.597625	-144.414074	359.613103	163.632589	13.296316	14.222402	-1.038186	32.222395	-29.975600	-45.000000	-45.000000	-2792.597634	1351.226642	133.480284	-108.218931	2149.722899	-317.404150	13.336283	-16.964758	
4.7100	-32.842443	-25.990431	32.072236	-45.363419	820.634162	-46.919714	29.112844	-45.000000	39.422476	-45.000000	-45.000000	-1547.037998	-2083.457950	20.644028	-144.551722	359.595759	163.125519	13.324288	14.233307	-1.035938	32.258023	-30.078648	-45.000000	-45.000000	-2792.489655	1351.295192	133.417326	-108.015263	2149.697672	-317.654749	13.430306	-17.051333	
4.7200	-32.928382	-25.905433	31.805669	-46.679101	822.347744	-47.109786	29.066408	-45.000000	39.455927	-45.000000	-45.000000	-1547.100546	-2083.422338	20.681757	-144.695960	359.565282	162.613317	13.353129	14.240876	-1.028231	32.297145	-30.170906	-45.000000	-45.000000	-2792.403498	1351.362134	133.371880	-107.812685	2149.678643	-317.890795	13.506102	-17.135500	
4.7300	-33.000418	-25.829865	31.555990	-47.957058	824.068407	-47.294713	29.022906	-45.000000	39.490278	-45.000000	-45.000000	-1547.163871	-2083.379451	20.718118	-144.840959	359.532284	162.089247	13.381199	14.241107	-1.027436	32.332539	-30.253227	-45.000000	-45.000000	-2792.326475	1351.430229	133.332580	-107.617403	2149.663327	-318.116202	13.575510	-17.225439	
4.7400	-33.049292	-25.768169	31.335931	-49.197857	825.795815	-47.474769	28.973874	-45.000000	39.519656	-45.000000	-45.000000	-1547.224332	-2083.313267	20.745348	-144.995291	359.485742	161.549946	13.410429	14.232860	-1.022372	32.371633	-30.315187	-45.000000	-45.000000	-2792.280141	1351.499735	133.314941	-107.434043	2149.653957	-318.333095	13.623398	-17.306969	
4.7500	-33.092985	-25.709281	31.124238	-50.401705	827.529009	-47.650232	28.929611	-45.000000	39.536408	-45.000000	-45.000000	-1547.284798	-2083.243973	20.781022	-145.151310	359.444620	160.996250	13.440119	14.215395	-1.023977	32.406467	-30.375391	-45.000000	-45.000000	-2792.227485	1351.572986	133.289317	-107.254176	2149.644335	-318.543720	13.674865	-17.400807	
4.7600	-33.128524	-25.652962	30.922707	-51.568728	829.266889	-47.821353	28.878968	-45.000000	39.547975	-45.000000	-45.000000	-1547.342944	-2083.168409	20.815841	-145.312639	359.398861	160.436496	13.471541	14.192952	-1.020893	32.443772	-30.432508	-45.000000	-45.000000	-2792.183242	1351.646287	133.268404	-107.074902	2149.637531	-318.748614	13.717744	-17.497748	
4.7700	-33.171533	-25.590007	30.710452	-52.698619	831.007706	-47.988269	28.829939	-45.000000	39.558235	-45.000000	-45.000000	-1547.401133	-2083.107864	20.861115	-145.471891	359.361961	159.880192	13.504429	14.168080	-1.024246	32.476787	-30.502550	-45.000000	-45.000000	-2792.116862	1351.719379	133.229700	-106.889314	2149.629872	-318.948480	13.772217	-17.615116	
4.7800	-33.215379	-25.523640	30.494352	-53.790964	832.749448	-48.151076	28.776729	-45.000000	39.575274	-45.000000	-45.000000	-1547.458979	-2083.057235	20.907661	-145.635872	359.322154	159.340101	13.541380	14.143770	-1.025236	32.512213	-30.578148	-45.000000	-45.000000	-2792.046299	1351.789644	133.188287	-106.699650	2149.623826	-319.142887	13.824586	-17.742251	
4.7900	-33.272960	-25.447275	30.258863	-54.844993	834.489232	-48.309832	28.725049	-45.000000	39.595794	-45.000000	-45.000000	-1547.514924	-2083.030852	20.965076	-145.798629	359.291987	158.827976	13.582747	14.119553	-1.031820	32.544967	-30.672928	-45.000000	-45.000000	-2791.947949	1351.856461	133.130290	-106.503474	2149.615729	-319.332051	13.889262	-17.892540	
4.8000	-33.325126	-25.371241	30.026982	-55.860115	836.223715	-48.464671	28.669443	-45.000000	39.632952	-45.000000	-45.000000	-1547.572433	-2083.012067	21.018203	-145.969516	359.256128	158.353687	13.630662	14.097762	-1.035239	32.581820	-30.766393	-45.000000	-45.000000	-2791.855326	1351.918855	133.078444	-106.308399	2149.610484	-319.515150	13.945867	-18.046787	
